HIERARCHY
ROOT Hips
{
    OFFSET 0.000000 0.000000 0.000000
    CHANNELS 6 Xposition Yposition Zposition Zrotation Xrotation Yrotation
    JOINT Spine
    {
        OFFSET -0.000000 7.236184 0.000000
        CHANNELS 3 Zrotation Xrotation Yrotation
        JOINT Spine1
        {
            OFFSET -0.000000 20.420147 0.000000
            CHANNELS 3 Zrotation Xrotation Yrotation
            JOINT Neck
            {
                OFFSET -0.000000 20.336288 1.848754
                CHANNELS 3 Zrotation Xrotation Yrotation
                JOINT Head
                {
                    OFFSET -0.000000 12.354461 -1.764923
                    CHANNELS 3 Zrotation Xrotation Yrotation
                    End Site
                    {
                        OFFSET -0.000000 22.061537 0.000000
                    }
                }
            }
            JOINT LeftShoulder
            {
                OFFSET 3.573296 18.396038 -0.314103
                CHANNELS 3 Zrotation Xrotation Yrotation
                JOINT LeftArm
                {
                    OFFSET 10.880760 0.000000 0.000000
                    CHANNELS 3 Zrotation Xrotation Yrotation
                    JOINT LeftForeArm
                    {
                        OFFSET 27.185530 0.000000 0.000000
                        CHANNELS 3 Zrotation Xrotation Yrotation
                        JOINT LeftHand
                        {
                            OFFSET 27.825975 0.000000 0.000000
                            CHANNELS 3 Zrotation Xrotation Yrotation
                            End Site
                            {
                                OFFSET 13.236923 0.000000 0.000000
                            }
                        }
                    }
                }
            }
            JOINT RightShoulder
            {
                OFFSET -3.474926 18.396038 -0.314103
                CHANNELS 3 Zrotation Xrotation Yrotation
                JOINT RightArm
                {
                    OFFSET -10.880760 0.000000 0.000000
                    CHANNELS 3 Zrotation Xrotation Yrotation
                    JOINT RightForeArm
                    {
                        OFFSET -27.185530 0.000000 0.000000
                        CHANNELS 3 Zrotation Xrotation Yrotation
                        JOINT RightHand
                        {
                            OFFSET -27.825975 0.000000 0.000000
                            CHANNELS 3 Zrotation Xrotation Yrotation
                            End Site
                            {
                                OFFSET -13.236923 0.000000 0.000000
                            }
                        }
                    }
                }
            }
        }
    }
    JOINT LeftUpLeg
    {
        OFFSET 8.824615 0.000000 0.000000
        CHANNELS 3 Zrotation Xrotation Yrotation
        JOINT LeftLeg
        {
            OFFSET -0.000000 -35.111282 0.000000
            CHANNELS 3 Zrotation Xrotation Yrotation
            JOINT LeftFoot
            {
                OFFSET -0.000000 -42.324711 0.000000
                CHANNELS 3 Zrotation Xrotation Yrotation
                JOINT LeftToeBase
                {
                    OFFSET -0.000000 -5.735999 13.236923
                    CHANNELS 3 Zrotation Xrotation Yrotation
                    End Site
                    {
                        OFFSET -0.000000 0.000000 3.529846
                    }
                }
            }
        }
    }
    JOINT RightUpLeg
    {
        OFFSET -8.824615 0.000000 0.000000
        CHANNELS 3 Zrotation Xrotation Yrotation
        JOINT RightLeg
        {
            OFFSET -0.000000 -35.111282 0.000000
            CHANNELS 3 Zrotation Xrotation Yrotation
            JOINT RightFoot
            {
                OFFSET -0.000000 -42.324711 0.000000
                CHANNELS 3 Zrotation Xrotation Yrotation
                JOINT RightToeBase
                {
                    OFFSET -0.000000 -5.735999 13.236923
                    CHANNELS 3 Zrotation Xrotation Yrotation
                    End Site
                    {
                        OFFSET -0.000000 0.000000 3.529846
                    }
                }
            }
        }
    }
}
MOTION
Frames:    13
Frame Time:    0.008333
-18.615957    85.996124    90.446304    -16.229170    13.754071    98.340714    2.842593    -14.872571    -1.371150    5.478079    16.145861    -2.519732    -2.479375    19.534136    13.965149    -21.320889    10.990004    13.534130    -1.117017    19.718069    -1.450005    -50.111523    39.227516    -32.481174    22.234966    -2.362992    -43.767021    21.352468    6.298899    -2.060111    6.557186    16.760639    -8.209040    29.533619    34.655972    39.490440    -3.154705    -21.207056    130.336807    -8.376124    -14.017924    -9.848512    -0.737440    -20.433859    -4.314864    -1.972297    27.201204    20.020765    -9.665388    14.299920    -17.871565    -2.517473    -7.076241    2.828627    -12.352281    -23.283596    6.503159    -0.230496    22.766087    12.239959    -9.809131    -6.842370    -15.889237    -2.415115    -0.434177    2.613631    
-18.717325    85.985413    90.504524    -16.301920    13.686122    98.511032    2.817749    -14.826087    -1.418599    5.530502    16.161129    -2.570956    -2.561184    19.596092    13.912221    -21.186472    10.908119    13.464626    -1.119340    19.617718    -1.574376    -49.672783    39.246681    -32.722862    22.060263    -2.040195    -43.233654    21.745951    6.397239    -2.175698    6.579020    16.810707    -8.240965    29.695194    34.671818    39.530357    -3.164534    -21.206707    130.292923    -8.428412    -13.994762    -9.910187    -0.472528    -20.818703    -4.105018    -2.113865    27.497259    20.211447    -9.909173    14.689437    -18.236349    -2.440874    -7.053854    2.742442    -12.355206    -23.412788    6.210900    -0.176130    22.795422    12.137017    -9.843861    -6.810426    -15.875885    -2.497171    -0.382286    2.702234    
-18.829981    85.980034    90.570953    -16.376904    13.625652    98.727394    2.794087    -14.769771    -1.464810    5.571393    16.175028    -2.619205    -2.659980    19.655670    13.848543    -21.038382    10.834655    13.385570    -1.111932    19.505013    -1.712991    -49.195930    39.260056    -32.987595    21.873180    -1.686694    -42.640602    22.199467    6.506256    -2.300879    6.592066    16.864624    -8.264978    29.874760    34.698730    39.549686    -3.176977    -21.223217    130.246735    -8.486485    -13.982909    -9.983313    -0.174124    -21.304440    -3.883794    -2.291621    27.901667    20.452280    -10.174484    15.192487    -18.687719    -2.351058    -6.985689    2.641166    -12.381828    -23.525028    5.896324    -0.117282    22.803928    12.017563    -9.869634    -6.781352    -15.863257    -2.582939    -0.319340    2.794796    
-18.950420    85.980453    90.643532    -16.451509    13.575900    98.984337    2.772380    -14.704470    -1.507753    5.598168    16.185907    -2.662082    -2.770980    19.707676    13.776204    -20.882202    10.775803    13.300445    -1.092300    19.382439    -1.861751    -48.699383    39.269535    -33.265644    21.680395    -1.314551    -42.006966    22.702730    6.622494    -2.430422    6.594283    16.919128    -8.278223    30.062210    34.736988    39.546959    -3.190947    -21.257475    130.200027    -8.548424    -13.985176    -10.063713    0.149072    -21.879984    -3.660108    -2.500539    28.406328    20.734243    -10.445778    15.794484    -19.208715    -2.253598    -6.865922    2.531066    -12.432588    -23.615011    5.574890    -0.056417    22.790522    11.886022    -9.883170    -6.757156    -15.853008    -2.668426    -0.248443    2.887008    
-19.069025    85.985794    90.716187    -16.520329    13.539765    99.258087    2.753877    -14.635213    -1.544574    5.609802    16.192232    -2.696779    -2.882611    19.746830    13.701827    -20.731070    10.736544    13.216951    -1.061182    19.259821    -2.009224    -48.223976    39.276535    -33.534229    21.496700    -0.953267    -41.383526    23.216482    6.736684    -2.553680    6.586251    16.968716    -8.279180    30.238251    34.782192    39.525078    -3.204593    -21.304522    130.156570    -8.609591    -14.001096    -10.142333    0.471430    -22.493830    -3.451375    -2.720979    28.963209    21.027161    -10.695101    16.434801    -19.747154    -2.160257    -6.703624    2.425435    -12.501143    -23.679182    5.275910    0.002038    22.759916    11.753527    -9.883748    -6.739690    -15.847003    -2.747002    -0.176221    2.971720    
-19.202011    85.995911    90.798553    -16.593246    13.511401    99.582687    2.735612    -14.552211    -1.580875    5.608766    16.194382    -2.728709    -3.007127    19.777967    13.615967    -20.565481    10.710648    13.124404    -1.013489    19.119602    -2.176297    -47.706017    39.284645    -33.828705    21.295898    -0.553428    -40.685379    23.811611    6.864434    -2.686627    6.567104    17.019258    -8.268134    30.422768    34.838741    39.484760    -3.219227    -21.368652    130.110077    -8.678514    -14.032079    -10.227495    0.836764    -23.224482    -3.227341    -2.978726    29.641106    21.360025    -10.950016    17.186260    -20.363560    -2.062286    -6.476423    2.314374    -12.594867    -23.729855    4.961412    0.066725    22.711592    11.602695    -9.872456    -6.726058    -15.845911    -2.828960    -0.093997    3.060031    
-19.333788    86.009369    90.880791    -16.661562    13.494905    99.918968    2.719111    -14.464563    -1.612518    5.594820    16.191818    -2.754016    -3.128716    19.796173    13.529119    -20.405205    10.701037    13.034008    -0.953533    18.977892    -2.344424    -47.207382    39.294605    -34.113491    21.102076    -0.162276    -39.993835    24.421024    6.990817    -2.812652    6.538689    17.063417    -8.244996    30.588726    34.898193    39.431999    -3.232096    -21.440643    130.066330    -8.746855    -14.074932    -10.306767    1.202724    -23.985741    -3.014354    -3.241341    30.359531    21.686712    -11.172733    17.948771    -20.978279    -1.975040    -6.207629    2.215263    -12.702902    -23.761929    4.672107    0.130320    22.653164    11.450992    -9.850551    -6.717976    -15.851007    -2.904824    -0.012111    3.141733    
-19.470524    86.025894    90.966377    -16.729050    13.488375    100.278625    2.702458    -14.368659    -1.641850    5.569249    16.185362    -2.774979    -3.250579    19.803305    13.437587    -20.243944    10.704633    12.941531    -0.879241    18.827709    -2.522608    -46.703770    39.308006    -34.401581    20.904581    0.239634    -39.275566    25.072313    7.122146    -2.937481    6.500820    17.102423    -8.209344    30.741766    34.960537    39.367668    -3.243429    -21.520706    130.022797    -8.817268    -14.129388    -10.383114    1.585838    -24.805702    -2.800087    -3.516275    31.142332    22.014292    -11.371187    18.740208    -21.609793    -1.896806    -5.890554    2.126159    -12.828032    -23.781197    4.393892    0.196435    22.585836    11.291182    -9.819509    -6.713736    -15.862352    -2.978866    0.072524    3.221434    
-19.617867    86.045822    91.058548    -16.798283    13.492129    100.674149    2.684491    -14.260604    -1.670360    5.530699    16.176088    -2.792642    -3.376971    19.799881    13.337977    -20.075150    10.719232    12.843073    -0.787291    18.662416    -2.719597    -46.172947    39.327034    -34.705090    20.694382    0.669235    -38.498436    25.793674    7.263775    -3.065281    6.451698    17.136700    -8.158943    30.883810    35.025017    39.291466    -3.252937    -21.609324    129.977356    -8.891905    -14.196811    -10.458302    2.001945    -25.715279    -2.574188    -3.810317    32.017941    22.348057    -11.548498    19.576403    -22.274611    -1.826956    -5.514797    2.046329    -12.975141    -23.790035    4.116141    0.267701    22.509245    11.116509    -9.779249    -6.712270    -15.880147    -3.053982    0.162780    3.302253    
-19.769117    86.068039    91.152802    -16.865898    13.507318    101.085312    2.664428    -14.145245    -1.696857    5.481392    16.165918    -2.806401    -3.501299    19.786392    13.234956    -19.907703    10.742064    12.742804    -0.681681    18.489532    -2.928273    -45.637299    39.351795    -35.011131    20.480045    1.107853    -37.694225    26.554022    7.409690    -3.189166    6.392912    17.162781    -8.094988    31.003372    35.085636    39.208900    -3.259591    -21.700373    129.931625    -8.965710    -14.272926    -10.528369    2.432343    -26.670258    -2.345833    -4.105565    32.942924    22.665047    -11.692764    20.399694    -22.932499    -1.770818    -5.103947    1.981837    -13.137985    -23.789652    3.852962    0.341045    22.429539    10.934025    -9.732912    -6.712683    -15.902938    -3.126603    0.253677    3.380352    
-19.919733    86.091621    91.246017    -16.929882    13.533711    101.496391    2.641949    -14.026957    -1.720897    5.423458    16.157804    -2.816269    -3.618753    19.765007    13.131760    -19.747583    10.769250    12.643339    -0.566681    18.314157    -3.143595    -45.109406    39.381992    -35.312332    20.266073    1.543819    -36.882721    27.329464    7.555636    -3.305214    6.326794    17.178949    -8.019674    31.094873    35.137768    39.125092    -3.263373    -21.789064    129.886108    -9.035021    -14.353376    -10.592090    2.864259    -27.635859    -2.120254    -4.388987    33.881809    22.952255    -11.801971    21.169500    -23.556347    -1.729126    -4.682847    1.933574    -13.310672    -23.782383    3.610215    0.413707    22.351194    10.748722    -9.683670    -6.713333    -15.927601    -3.195099    0.341733    3.453986    
-20.069637    86.116379    91.337929    -16.990307    13.571350    101.904114    2.616184    -13.906736    -1.742781    5.357821    16.154264    -2.822688    -3.729799    19.737980    13.028765    -19.594946    10.797805    12.544382    -0.444014    18.136726    -3.365951    -44.585190    39.417431    -35.611137    20.050200    1.978449    -36.060234    28.117573    7.701724    -3.413166    6.254111    17.184978    -7.934011    31.158136    35.178913    39.042667    -3.264762    -21.873117    129.839584    -9.099026    -14.435048    -10.650729    3.297701    -28.605350    -1.896043    -4.656907    34.826160    23.209217    -11.880875    21.874645    -24.141466    -1.699302    -4.266356    1.898681    -13.492092    -23.770451    3.385321    0.485108    22.276089    10.560925    -9.633044    -6.712932    -15.952086    -3.259535    0.426474    3.523230    
-20.231268    86.144455    91.435951    -17.052071    13.624446    102.339211    2.584237    -13.775370    -1.764280    5.278759    16.157724    -2.826211    -3.843495    19.705446    12.917736    -19.437969    10.827441    12.437447    -0.304490    17.942945    -3.614600    -44.016880    39.460674    -35.935085    19.810514    2.449582    -35.152725    28.982758    7.860436    -3.520560    6.168632    17.180391    -7.830835    31.196096    35.210594    38.957481    -3.264697    -21.958965    129.786667    -9.161187    -14.522682    -10.710187    3.769548    -29.654207    -1.652428    -4.926217    35.846973    23.455759    -11.938255    22.561579    -24.730482    -1.676507    -3.835174    1.871647    -13.697188    -23.754442    3.158743    0.560520    22.199615    10.354917    -9.577831    -6.710243    -15.976230    -3.325365    0.514188    3.593951    
